<svg width="34" height="37" viewBox="0 0 34 37" fill="none" xmlns="http://www.w3.org/2000/svg">
<g filter="url(#filter0_d)">
<path d="M8.80854 23.9348C8.80854 24.6921 9.45532 25.3103 10.2511 25.3103H11.9002V29.207C11.9002 30.1941 12.7299 31 13.7491 31C14.7718 31 15.5981 30.1974 15.5981 29.207V25.3071H18.4764V29.2038C18.4764 30.1909 19.3061 30.9968 20.3253 30.9968C21.348 30.9968 22.1743 30.1941 22.1743 29.2038V25.3071H23.8234C24.6192 25.3071 25.2659 24.6889 25.2659 23.9316V11.1411H8.80854V23.9348ZM20.901 4.51279L22.4215 2.40908C22.5095 2.2861 22.4892 2.12104 22.3707 2.04013C22.2521 1.96245 22.0828 2.00129 21.9948 2.12428L20.4168 4.31213C19.3772 3.92051 18.2191 3.70367 17.0034 3.70367C15.7877 3.70367 14.6296 3.92051 13.59 4.31213L12.012 2.12751C11.9239 2.00453 11.7546 1.96245 11.6361 2.04336C11.5176 2.12104 11.4973 2.28286 11.5853 2.41232L13.1058 4.51602C10.6879 5.59053 8.99479 7.62626 8.77807 10.0051H25.2355C25.012 7.62303 23.3154 5.58729 20.901 4.51279ZM13.529 7.83016C13.3489 7.83016 13.1728 7.7791 13.023 7.68344C12.8732 7.58777 12.7564 7.4518 12.6875 7.29272C12.6185 7.13364 12.6005 6.95859 12.6356 6.7897C12.6708 6.62082 12.7575 6.4657 12.8849 6.34394C13.0123 6.22218 13.1746 6.13927 13.3513 6.10567C13.528 6.07208 13.7112 6.08932 13.8776 6.15521C14.0441 6.22111 14.1863 6.3327 14.2864 6.47587C14.3865 6.61904 14.44 6.78736 14.44 6.95955C14.4393 7.19027 14.3432 7.41136 14.1725 7.5745C14.0018 7.73765 13.7704 7.82956 13.529 7.83016ZM20.5861 7.83016C20.4059 7.83016 20.2298 7.7791 20.08 7.68344C19.9302 7.58777 19.8135 7.4518 19.7445 7.29272C19.6756 7.13364 19.6575 6.95859 19.6927 6.7897C19.7278 6.62082 19.8146 6.4657 19.942 6.34394C20.0694 6.22218 20.2317 6.13927 20.4084 6.10567C20.5851 6.07208 20.7682 6.08932 20.9347 6.15521C21.1011 6.22111 21.2434 6.3327 21.3435 6.47587C21.4436 6.61904 21.497 6.78736 21.497 6.95955C21.4964 7.19027 21.4002 7.41136 21.2295 7.5745C21.0588 7.73765 20.8275 7.82956 20.5861 7.83016ZM28.1511 11.0893C27.1284 11.0893 26.3022 11.8919 26.3022 12.8823V19.886C26.3022 20.8731 27.1318 21.679 28.1511 21.679C29.1737 21.679 30 20.8763 30 19.886V12.879C30.0034 11.8887 29.1771 11.0893 28.1511 11.0893ZM5.84892 11.0893C4.82626 11.0893 4 11.8919 4 12.8823V19.886C4 20.8731 4.82964 21.679 5.84892 21.679C6.87158 21.679 7.69784 20.8763 7.69784 19.886V12.879C7.69784 11.8887 6.86819 11.0893 5.84892 11.0893Z" fill="white"/>
</g>
<defs>
<filter id="filter0_d" x="0" y="0" width="34" height="37" filterUnits="userSpaceOnUse" color-interpolation-filters="sRGB">
<feFlood flood-opacity="0" result="BackgroundImageFix"/>
<feColorMatrix in="SourceAlpha" type="matrix" values="0 0 0 0 0 0 0 0 0 0 0 0 0 0 0 0 0 0 127 0"/>
<feOffset dy="2"/>
<feGaussianBlur stdDeviation="2"/>
<feColorMatrix type="matrix" values="0 0 0 0 0 0 0 0 0 0 0 0 0 0 0 0 0 0 0.7 0"/>
<feBlend mode="normal" in2="BackgroundImageFix" result="effect1_dropShadow"/>
<feBlend mode="normal" in="SourceGraphic" in2="effect1_dropShadow" result="shape"/>
</filter>
</defs>
</svg>
