<svg width="32" height="38" viewBox="0 0 32 38" fill="none" xmlns="http://www.w3.org/2000/svg">
<g filter="url(#filter0_d)">
<path d="M27.4962 25.3792C27.081 26.398 26.5681 27.3695 25.9654 28.2787C25.1602 29.4893 24.499 30.3258 23.9923 30.7915C23.2051 31.5522 22.3595 31.9437 21.4554 31.9658C20.8076 31.9658 20.025 31.7716 19.1134 31.377C18.1988 30.984 17.3592 30.7915 16.59 30.7915C15.7848 30.7915 14.9212 30.984 13.9961 31.377C13.0725 31.7716 12.3259 31.9784 11.7546 31.9973C10.8895 32.0368 10.0244 31.6359 9.16224 30.7915C8.61198 30.2864 7.92378 29.4183 7.09764 28.1903C6.21303 26.8818 5.48585 25.3586 4.9161 23.6271C4.30587 21.7536 4 19.9416 4 18.1864C4 16.1771 4.41232 14.4425 5.23846 12.9903C5.86331 11.8499 6.75662 10.8981 7.83232 10.2266C8.89306 9.55682 10.104 9.19619 11.3408 9.18169C12.0305 9.18169 12.9346 9.40582 14.0546 9.84777C15.1746 10.2897 15.8943 10.5138 16.2077 10.5138C16.4446 10.5138 17.2407 10.2503 18.5961 9.72781C19.8751 9.24324 20.9546 9.04279 21.8392 9.12171C24.2381 9.32532 26.0389 10.3197 27.2368 12.1128C25.0928 13.4812 24.0327 15.3958 24.0537 17.8534C24.0717 19.768 24.7329 21.3606 26.0284 22.6249C26.6011 23.2018 27.2693 23.6635 28 23.987C27.8411 24.4716 27.6731 24.934 27.4962 25.3792ZM21.9981 2.60137C21.9981 4.10084 21.4764 5.50245 20.4403 6.79831C19.1869 8.33882 17.6725 9.23062 16.0307 9.09014C16.0093 8.90158 15.9987 8.71182 15.9993 8.52192C15.9993 7.08085 16.593 5.54033 17.653 4.2792C18.1808 3.64153 18.8525 3.10961 19.6666 2.6866C20.4793 2.26991 21.247 2.03946 21.9696 2C21.9891 2.20203 21.9981 2.40249 21.9981 2.60137Z" fill="white"/>
</g>
<defs>
<filter id="filter0_d" x="0" y="0" width="32" height="38" filterUnits="userSpaceOnUse" color-interpolation-filters="sRGB">
<feFlood flood-opacity="0" result="BackgroundImageFix"/>
<feColorMatrix in="SourceAlpha" type="matrix" values="0 0 0 0 0 0 0 0 0 0 0 0 0 0 0 0 0 0 127 0"/>
<feOffset dy="2"/>
<feGaussianBlur stdDeviation="2"/>
<feColorMatrix type="matrix" values="0 0 0 0 0 0 0 0 0 0 0 0 0 0 0 0 0 0 0.7 0"/>
<feBlend mode="normal" in2="BackgroundImageFix" result="effect1_dropShadow"/>
<feBlend mode="normal" in="SourceGraphic" in2="effect1_dropShadow" result="shape"/>
</filter>
</defs>
</svg>
